<svg id="Capa_1" data-name="Capa 1" xmlns="http://www.w3.org/2000/svg" xmlns:xlink="http://www.w3.org/1999/xlink" viewBox="0 0 1080 1080"><defs><style>.cls-1,.cls-6{fill:none;}.cls-2{clip-path:url(#clip-path);}.cls-3{fill:#005d74;}.cls-4{fill:#008db0;}.cls-5{clip-path:url(#clip-path-2);}.cls-6{stroke:#005d74;stroke-miterlimit:10;}.cls-7{fill:#fff;}</style><clipPath id="clip-path"><rect class="cls-1" x="-480.23" y="-183.17" width="1494.04" height="987.43" transform="translate(-141.94 333.95) rotate(-52.61)"/></clipPath><clipPath id="clip-path-2"><rect class="cls-1" x="101.16" y="511.04" width="1494.04" height="476.29" transform="translate(-262.11 968.17) rotate(-52.61)"/></clipPath></defs><g class="cls-2"><path class="cls-3" d="M981.82,758.19A317.88,317.88,0,0,0,868.08,323.25l-1.15-.68-420.21-246a26.23,26.23,0,1,0-26.51,45.28L690.72,280.22a320.49,320.49,0,0,0-127.67,34.27L451.18,249a26.24,26.24,0,1,0-26.51,45.29L513.08,346a315.43,315.43,0,0,0-65.76,68.84L48.93,181.66A26.24,26.24,0,0,0,22.42,227L420.8,460.16a315.62,315.62,0,0,0-27.66,88.89L377,539.61A26.24,26.24,0,0,0,350.5,584.9l39.14,22.91a322.73,322.73,0,0,0,32.61,130.35L152,580a26.24,26.24,0,0,0-26.51,45.29L546.87,871.92l.34.19C698.42,960.41,893.33,909.35,981.82,758.19ZM508.93,481.35C573,371.88,714.22,335,823.7,399S970.12,604.35,906,713.83s-205.3,146.4-314.77,82.31a230.1,230.1,0,0,1-82.32-314.79Z"/><path class="cls-4" d="M860.73,687.3a177.77,177.77,0,0,0-63.54-243c-84.5-49.47-193.5-21-243,63.54a177.62,177.62,0,0,0,63.54,243C702.27,800.32,811.27,771.82,860.73,687.3ZM670,454.05a26.24,26.24,0,0,1,32,18.75l7.4,28.31a26.24,26.24,0,0,1-50.77,13.28l-7.4-28.32A26.22,26.22,0,0,1,670,454.05ZM614,573.29l-25.26-14.78a26.24,26.24,0,0,1,26.51-45.3L640.52,528A26.23,26.23,0,0,1,614,573.29Zm127-33.11a26.25,26.25,0,0,1-9.39-35.9L746.4,479a26.24,26.24,0,1,1,45.28,26.52L776.9,530.79A26.25,26.25,0,0,1,741,540.18ZM595.85,653.89a26.24,26.24,0,0,1-13.28-50.77l28.32-7.4a26.24,26.24,0,1,1,13.27,50.77Zm208-54.39a26.24,26.24,0,1,1-13.28-50.77l28.33-7.41a26.24,26.24,0,0,1,13.28,50.77Zm-3.06,22.33,25.27,14.78a26.24,26.24,0,1,1-26.5,45.3l-25.28-14.8a26.23,26.23,0,0,1,26.51-45.28ZM632.38,725.7A26.24,26.24,0,0,1,623,689.8l14.78-25.25a26.24,26.24,0,0,1,45.3,26.5l-14.8,25.26A26.24,26.24,0,0,1,632.38,725.7ZM713,722.37l-7.4-28.31a26.24,26.24,0,0,1,50.77-13.28l7.4,28.32A26.24,26.24,0,1,1,713,722.37Z"/></g><g class="cls-5"><path class="cls-3" d="M1054.56,715.8a361.51,361.51,0,0,0,17.9-86.06L1013.11,601c.07-9.62-.27-19.31-1.14-29-.24-3.37-.7-6.67-1.08-10l55.83-35.28a361.49,361.49,0,0,0-27.31-83.47L973.47,448A299.46,299.46,0,0,0,952,415.16l30.69-58.38a369.94,369.94,0,0,0-65.47-58.6l-54.68,37.07a308.15,308.15,0,0,0-34.91-17.73l-2.59-65.89a364.62,364.62,0,0,0-86-18l-28.76,59.4c-9.61-.08-19.25.29-29,1.13-3.39.3-6.71.72-10,1.12L636,239.41a366.3,366.3,0,0,0-83.54,27.34l4.8,65.95a295.45,295.45,0,0,0-32.77,21.45l-58.42-30.71A366.11,366.11,0,0,0,407.49,389l37.1,54.65a301.61,301.61,0,0,0-17.77,34.88l-65.93,2.59A362.65,362.65,0,0,0,343,567.15l59.38,28.75c-.06,9.63.25,19.31,1.09,29.05.3,3.37.72,6.66,1.16,10l-55.89,35.26a366.14,366.14,0,0,0,27.34,83.48L442,748.93a305.57,305.57,0,0,0,21.44,32.77l-30.71,58.36a365.9,365.9,0,0,0,65.51,58.61l54.65-37.07a297.44,297.44,0,0,0,34.92,17.76l2.59,65.91a363.32,363.32,0,0,0,86,17.93l28.83-59.38c9.58,0,19.29-.27,29-1.11,3.35-.27,6.67-.73,10-1.16l35.26,55.94A366.67,366.67,0,0,0,863,930.17l-4.77-66A318.14,318.14,0,0,0,891,842.76l58.38,30.7A368.72,368.72,0,0,0,1008,808l-37-54.65a324.23,324.23,0,0,0,17.74-34.93ZM707.74,813.68c-118.7,0-215.24-96.56-215.24-215.24S589,383.2,707.74,383.2,923,479.77,923,598.44,826.41,813.68,707.74,813.68Z"/><path class="cls-6" d="M492.69,598.44c0,118.57,96.44,215,215.05,215s215-96.48,215-215-96.44-215.06-215-215.06S492.69,479.86,492.69,598.44Zm376.88-14.13c7.78,89.43-58.35,168.22-147.73,176s-168.19-58.38-176-147.73,58.39-168.2,147.77-176S861.84,495,869.57,584.31Z"/><path class="cls-7" d="M477.29,598.44c0,127.06,103.36,230.44,230.45,230.44S938.17,725.5,938.17,598.44,834.8,368,707.74,368,477.29,471.38,477.29,598.44Zm417.3,0c0,103-83.8,186.87-186.85,186.87S520.86,701.47,520.86,598.44s83.81-186.88,186.88-186.88S894.59,495.4,894.59,598.44Z"/></g><path class="cls-4" d="M861.37,688.12a177.77,177.77,0,0,0-63.54-243c-84.5-49.47-193.5-21-243,63.54a177.62,177.62,0,0,0,63.54,243C702.91,801.14,811.91,772.64,861.37,688.12ZM670.6,454.87a26.24,26.24,0,0,1,32,18.75l7.4,28.31a26.24,26.24,0,0,1-50.77,13.28l-7.4-28.32A26.22,26.22,0,0,1,670.6,454.87Zm-56,119.24-25.26-14.78A26.24,26.24,0,0,1,615.9,514l25.26,14.8a26.23,26.23,0,0,1-26.51,45.28Zm127-33.11a26.25,26.25,0,0,1-9.39-35.9L747,479.83a26.24,26.24,0,1,1,45.28,26.52l-14.78,25.26A26.25,26.25,0,0,1,741.63,541ZM596.49,654.71a26.24,26.24,0,0,1-13.28-50.77l28.32-7.4a26.24,26.24,0,1,1,13.27,50.77Zm208-54.39a26.24,26.24,0,1,1-13.28-50.77l28.33-7.41a26.24,26.24,0,0,1,13.28,50.77Zm-3.06,22.33,25.27,14.78a26.24,26.24,0,1,1-26.5,45.3l-25.28-14.8a26.23,26.23,0,0,1,26.51-45.28ZM633,726.52a26.24,26.24,0,0,1-9.38-35.9l14.78-25.25a26.24,26.24,0,0,1,45.3,26.5l-14.8,25.26A26.24,26.24,0,0,1,633,726.52Zm80.62-3.33-7.4-28.31A26.24,26.24,0,0,1,757,681.6l7.4,28.31a26.24,26.24,0,1,1-50.77,13.28Z"/></svg>